<svg xmlns="http://www.w3.org/2000/svg" viewBox="0 0 19.932 19.932"><path d="M14.89 3.196c-.468 0-.828.042-1.166.361-.34.318-.742.677-.742.677s-.423-.212-.574-.508c-.146-.297-.38-.678-.739-.888-.362-.212-.702-.277-.954-.425-.255-.148-.993-.571-1.334-.699-.34-.128-.53-.255-.848-.423-.318-.17-.975-.297-1.397-.36 0 0-.106-.569-.825-.814-.85-.29-1.357.051-1.357.051s-.146-.042-.276 0c-.127.042-.086.147-.169.147-.086 0-.128.063-.17.127-.042.064-.042.149-.084.212-.044.063-.126.063-.107.19l.021.127s-.458 1.318.743 1.87c1.488.684 2.157-.776 2.157-.776s.597.18.892.265c.296.084.422.127.678.297.254.171.572.445.87.635.297.19.699.506.699.506s-1.419.891-1.867 1.654c-.444.761-1.164 1.992-1.419 2.349-.254.361-.824 1.21-.656 2.1.17.889.826 1.228.954 1.419.126.188.403 1.587.487 1.842s.17.679.189.871c.022.188-.044.337.022.57.064.233.064.445.064.445s-.507.595-.87.827c-.358.231-.508.379-.719.379-.213 0-.424.023-.508.17-.086.149-.086.319-.022.53.063.212.317.995.274 1.229-.033.18-.09.387-.096.528H5.06v1.251h8.078v-1.251h-1.035a1.067 1.067 0 00-.415-.401c-.402-.234-1.06-.595-1.102-.763-.042-.17.147-.911.38-1.651.234-.743.256-.893.256-.893s.466-.295.57-.613c.106-.318.13-.723.15-.783.021-.063 1.101-1.165 1.25-2.1.147-.932.189-1.249.297-1.608.104-.359.17-.317.212-.678.042-.361.042-.681.042-.681s.316-.592.212-1.059c-.105-.462-.273-.462-.315-.887-.044-.422-.066-.762.126-.847.19-.085.168-.149.444-.149.272 0 .51.045.615-.062.105-.104.825-.297.995-1.037.171-.743-.465-1.273-.93-1.273zM8.215 17.833c-.105.256-.381.405-.401.553a6.363 6.363 0 01-.054.296h-.773c.021-.424.104-1.216.189-1.42.105-.252 0-.273.299-.486.295-.212.675-.401.675-.401s.173 1.205.065 1.458zm2.143-15.512c.083.064.344.301.73.413.439.129.678.306.869.556.189.254.346.562.346.562s-.457-.564-.709-.708c-.248-.144-.939-.495-1.258-.841-.002-.003.012.008.022.018zm.249 9.121c-.088-.11-.534-.724-.534-.724s.768.737.967 1.025c.201.288.443.7.443.7s-.788-.89-.876-1.001zm1.887-1.391c-.063.212-.063.529-.189.699-.128.168-.256.72-.318.934-.062.211-.36.741-.36.741s-.34-.637-1.017-1.315c-.679-.676-.911-1.058-.887-1.355.018-.296.188-.868.422-.994.231-.127.806-.297 1.037-.425.234-.126.38-.147.528-.211.148-.062.911-.021.911-.021s-.104.402-.085.782c.023.383.023.954-.042 1.165zm3.215-5.577c-.072.313-.506.64-.506.64s.194-.224.357-.653c.162-.43-.134-.786-.134-.786.327.177.358.491.283.799z"/></svg>