<svg version="1.2" baseProfile="tiny" xmlns="http://www.w3.org/2000/svg" viewBox="0 0 153.31 396.76" overflow="visible"><path d="M135.34 352H14.61c2.96-5.41 7.56-7.87 12.55-9.63 3.28-1.16 6.7-2.29 10.13-2.55 4.04-.32 5.55-2.12 5.66-5.92.3-10.97-2.13-20.73-11.42-27.78-5.01-3.81-7.48-8.8-6.38-15.27.21-1.24.12-2.63-.21-3.85-2.18-7.96-2.03-10.1 1.68-17.95-2.99-3.44-5.39-7.12-2.62-12.02.35-.63-.76-1.99-1.01-3.06-.48-2.07-1.71-4.5-1.06-6.18 1.72-4.5-.47-7.5-2.56-10.96-2.49-4.1-4.63-8.45-6.61-12.83-.79-1.75-1.63-4.35-.91-5.78 3.74-7.41-2.47-13.16-2.8-19.82-.28-5.65.17-11.05 1.27-16.76 1.64-8.46 6.09-4.64 10.11-4.1 11.48 1.55 22.65-.28 33.55-3.53 11.8-3.52 23.42-7.63 35.1-11.55 6.37-2.14 10.84 1.43 10.33 8.23-.13 1.71-.27 3.7.45 5.14 3.4 6.88 1.63 12.62-2.61 18.56-2.92 4.08-5.19 8.83-6.8 13.6-1.69 5.04-.98 9.86 3.12 14.26 5.2 5.58 6.05 12.88 5.24 20.2-.52 4.69.35 8.61 2.89 12.67 4.57 7.33 6.27 15.36 3.48 23.92-.34 1.05-.65 2.46-.23 3.35 3.22 6.87 5.78 14.26 10.15 20.33 9.67 13.45 17.64 27.44 20.08 44.08.17 1.15.32 2.31.4 3.47.02.49-.13.98-.24 1.73zm-59.98-47.17c-1.4-7.98-2.67-15.99-4.23-23.95-4.3-21.95-3.63-43.32 6.99-63.62.47-.9.77-1.89 1.15-2.83-10.42 9.61-17.78 20.81-18.66 35.25-1.22 19.95 7.44 37.37 14.75 55.15zm12.22-125.07c-21.03 18.99-44.64 22.5-70.69 11.57 25.07 20.09 48.03 18.01 70.69-11.57zM52.53 338.33c8.88-.98 18.43-2.03 27.23-3-9.9-7.9-19.98-15.93-28.97-23.1.52 7.76 1.12 16.77 1.74 26.1z"/><path d="M12.88 171.58c2.66-16.31 8.17-31.14 18.39-43.94 1.83-2.3 2.83-4.25 1.43-7.11-.64-1.3-.78-2.89-.93-4.37-.52-5.17-1.57-6.26-6.81-5.07-4.61 1.05-9.02 2.92-13.94 4.57-2.61-9.34-5.73-19.28-5.19-29.89.38-7.6 3.49-13.62 10.03-18 4.8-3.22 9.11-7.17 14.27-11.3-.36-1.92-.88-4.62-1.43-7.54 13.21 7.55 15.35 7.29 22.63-1.94 8.93.47 15.83 7.73 25.38 4.88 3.77-1.12 8.16-.18 12.9-.18-3.11 11.55-1.78 21.48 2.85 31.21-1.17.48-2.31.96-3.63 1.5 2.42 13.66 1.47 27.04-.96 40.4-.34 1.84.24 3.92.67 5.82 1.98 8.7 4.06 17.38 6.06 25.89-35.76 14.1-64.99 22.78-81.72 15.07zM0 368.93h153.31v27.83H0v-27.83z"/><path d="M12.01 25.62C13 9.67 25.41-1.53 40.82.17c2.37.26 5.46.97 6.77 2.63 3.87 4.88 7.13 10.26 10.34 15.62.64 1.07.34 2.98-.05 4.35-1.59 5.54-3.27 11.06-5.11 16.53-4.25 12.56-13.51 14.93-23.27 5.95-3.84-3.54-6.98-7.62-11.86-10.29-2.75-1.51-3.81-6.13-5.63-9.34zM143.81 356v8.89H9.77V356h134.04zM92.87 53.32c6.1 5.79 7.97 23.89 3.29 29.58-5.85-4.84-8-22.83-3.29-29.58zM13 118.65c3.43-5.01 10.89-7.24 16.92-5.06-2.06 5.31-11.51 8.13-16.92 5.06z"/></svg>