<svg xmlns="http://www.w3.org/2000/svg" viewBox="0 0 19.935 19.935"><path d="M14.13 18.944h-.262v-.742c.046-.035.075-.096.08-.197 0 0-.027-.404-.221-.639-.197-.235-1.008-1.109-1.088-1.514-.076-.405-.062-1.723-.455-2.505-.39-.784-.808-1.187-.898-1.682-.093-.497-.223-1.437-.406-2.126-.183-.693-.248-.876-.285-1.214-.041-.34-.027-.746-.146-1.162-.116-.419-.078-.64-.025-.939.053-.301.143-1.384.143-1.384s.64.731 1.005.9c.364.17.573.262.667.183.091-.079.184-.352.128-.651-.052-.302.08-.354-.364-.9-.444-.549-.862-1.006-.967-1.267-.104-.262-.561-.613-.561-.613s-.076-.287-.233-.327c-.157-.039-.327.04-.327.04s-.13-.04-.183.038c-.051.078.025.275.025.275s-.089.078-.155.208-.172.328-.274.314c-.104-.014-.236-.052-.263-.17-.026-.117-.026-.312-.026-.312s.263-.17.302-.302c.038-.13.13-.457.13-.64 0-.182.013-.299.013-.299l.118-.196s.17-.078.13-.209c-.04-.13-.168-.13-.117-.248.054-.117.054-.312-.025-.366C9.511.247 9.316.169 9.328.09c.013-.077-.289-.13-.352-.052-.065.079-.17.131-.313.052-.142-.077-.379-.052-.457.053-.078.104-.118.117-.197.117-.078 0-.17-.024-.208.093-.038.116-.092.208-.183.233-.091.027-.169.027-.142.119.023.091-.013.365-.092.391-.08.024-.091.091-.065.169.025.077.078.13.025.207-.051.08-.078.118-.013.171.066.054.208.157.183.209-.027.052-.13.105-.078.182.051.079.21.146.157.249-.054.104-.026.156.053.196.076.04.17.065.17.065s.062.6-.117.77c-.185.17-.588.391-.811.469-.222.079-.64.34-.729.653-.093.314.013.9-.067 1.16a5.265 5.265 0 00-.169 1.085c-.013.338-.027.677-.065.873a2.906 2.906 0 00-.025.939c.05.379.09.534.062.796-.025.261.17.548.208.771.04.222.145.287.289.379.143.091.143.299.481.403.34.105.522.105.522.105s.029-.013.062-.031c.145.49.294.965.316 1.087.04.223.04.704.063.875.029.168-.063.782.067 1.37.069.317.311.83.53 1.305-.05.026-.13.06-.192.026-.091-.053-.21-.132-.21-.132s-.104.104-.128.288c-.029.182-.225.312-.225.312s.459.209.524.496c.064.287 0 .561-.053.757-.033.116-.079.285-.115.405h-.17v1.239h-.256v.209h.114l-.074.782h6.441l-.076-.782h.117v-.209zm-2.838-14.26c.146.312.385.92.385.92s-.459-.549-.534-.89c-.075-.341-.474-.876-.474-.876s.474.535.623.846zM7.331 7.502c-.038.274-.092.795-.168 1.043-.067.208-.042.629.007 1.068a.447.447 0 00-.06-.075c-.184-.17-.616-.248-.626-.522-.013-.275.34-.822.274-1.279s-.054-.587.066-.966c.115-.378.208-.979.208-.979s.432.496.468.81c.039.314-.131.626-.169.9zm-.697-3.163c-.209.148-.282.683-.282.683s-.045-.431.029-.653c.073-.223.281-.268.579-.386.296-.12.786-.476.786-.476 0 .224-.902.684-1.112.832zm3.723 13.367a2.005 2.005 0 00-.168-.443 4.498 4.498 0 01-.338-.783c-.079-.249.038-.365-.132-.496-.168-.131-.13-.169-.13-.327 0-.156.223-.417.079-.613-.145-.194-.197-.207-.197-.429s-.026-.746-.041-.915c-.011-.169-.074-.418.015-.484.091-.064.211-.116.079-.208-.132-.091-.104-.077-.183-.182-.079-.104-.064-.234-.197-.118-.055.052-.119.1-.178.149.022-.358.01-.803-.005-1.088-.013-.301-.037-.797-.013-1.032.027-.235.027-.602.027-.602s.301.55.508.836c.208.287.418.418.496.641.079.221.234.756.392 1.017.159.262.34.313.431.73.092.417.25.991.471 1.227.223.234.472.822.6 1.211.131.394.312.55.301.902-.013.352.053.6.209.678.151.076.317.165.396.327h-2.42v.002h-.002z"/></svg>