<svg xmlns="http://www.w3.org/2000/svg" width="25.252" height="19.975"><path data-name="Path 26" d="M24.512 12.527h.74v2.517h-.74z"/><path data-name="Path 27" d="M24.142 9.618h-1.536a9.986 9.986 0 00-16.256-7.4H1.11A1.111 1.111 0 000 3.329v1.11h.74v-1.11a.37.37 0 01.37-.37h5.918a.37.37 0 01.37.37v5.918a.37.37 0 01-.37.37H2.912L.74 10.836v-6.4H0V12.1l2.658-1.491A9.986 9.986 0 0018.9 17.755h3.244l3.108 1.745v-4.7h-.74v3.437l-2.172-1.221h-4.116a.37.37 0 01-.37-.37v-5.919a.37.37 0 01.37-.37h5.919a.37.37 0 01.37.37v1.85h.74v-1.85a1.111 1.111 0 00-1.111-1.109zM13 9.6V5.44a14.153 14.153 0 012.471.3 11.9 11.9 0 011.693.495 17.3 17.3 0 01.485 3.383zm2.626-4.589A14.884 14.884 0 0013 4.7V.762a3.355 3.355 0 012 1.027 8.733 8.733 0 011.922 3.575 12.944 12.944 0 00-1.3-.349zM12.26.762v3.927a15.769 15.769 0 00-3.936.549C9.168 2.677 10.651.989 12.26.762zM8.138 9.248V6.065a14.88 14.88 0 014.118-.633V9.6l-4.173-.011a1.1 1.1 0 00.055-.341zm-.889 4.135a8.854 8.854 0 01-3.573-3.026h3.19a17.667 17.667 0 00.382 3.026zm.357-3.053l4.651.012v4.193a14.155 14.155 0 01-2.471-.3 11.9 11.9 0 01-1.693-.495 17.258 17.258 0 01-.486-3.411zm2.024 4.63a14.884 14.884 0 002.626.314v3.939a3.355 3.355 0 01-2-1.027 8.733 8.733 0 01-1.925-3.576 12.942 12.942 0 001.299.35zM13 19.209v-3.927a15.769 15.769 0 003.936-.549c-.848 2.561-2.336 4.249-3.936 4.476zm4.118-8.482v3.183a14.881 14.881 0 01-4.118.632v-4.2l4.183.011a1.105 1.105 0 00-.065.373zM18 6.592a8.854 8.854 0 013.573 3.026h-3.19A17.666 17.666 0 0018 6.592zm3.771 2.048a9.805 9.805 0 00-3.99-2.957 1.824 1.824 0 01-.025-.1 10.093 10.093 0 00-2.237-4.321 1.799 1.799 0 00-.1-.093 9.275 9.275 0 016.348 7.466zM9.445 1.634a8.65 8.65 0 00-1.308 2.055V3.33a1.111 1.111 0 00-.668-1.018 9.258 9.258 0 012.455-1.167 6.126 6.126 0 00-.479.489zm-5.968 9.7a9.806 9.806 0 003.99 2.957l.025.1a10.093 10.093 0 002.237 4.321c.032.032.064.062.1.093a9.275 9.275 0 01-6.348-7.466zm12.33 7.005a8.65 8.65 0 001.308-2.055v.36a1.111 1.111 0 00.668 1.018 9.259 9.259 0 01-2.456 1.167 6.145 6.145 0 00.48-.488z"/><path data-name="Path 30" d="M19.461 15.455l.691.263.336-.882h1.392l.333.881.692-.261-1.395-3.7h-.643zm2.14-1.358h-.831l.418-1.1z"/><path data-name="Path 31" d="M3.699 4.379v.74H2.172v.74h.638a5.83 5.83 0 00.763 1.242 8.386 8.386 0 01-.891.805l.457.582a9.238 9.238 0 00.927-.828 9.245 9.245 0 00.927.828l.457-.582a8.391 8.391 0 01-.891-.805 5.827 5.827 0 00.763-1.242h.638v-.74H4.439v-.74zm.8 1.48a5.289 5.289 0 01-.43.664 5.289 5.289 0 01-.43-.664z"/></svg>